<svg xmlns="http://www.w3.org/2000/svg" viewBox="0 0 100 100">
  <path d="M50,15.7c-5.9,0-10.7,4.8-10.7,10.7v0c0,2.6,0.9,5,2.5,6.9l19.5,23.1c1,1.2,1,3,0,4.2c-1.1,1.4-3,1.9-4.7,1.1l-24.3-11.4c-2.4-1.1-5.3-0.5-7,1.4c-2.5,2.7-2.3,6.9,0.4,9.4l12,11.3c2.4,2.3,6.2,2.4,8.7,0.3c1.7-1.4,2.6-3.5,2.6-5.6v-25c0-1.5,1.2-2.7,2.7-2.7s2.7,1.2,2.7,2.7v25c0,4-1.6,7.8-4.4,10.6c-4,4-9.9,4.4-14.3,0.9l-12-11.3c-5.1-4.8-5.6-12.7-1.1-18.2c2.7-3.3,7-5,11.2-4l24.3,11.4c4,1.9,8.5,0,11-3.6c2.4-3.5,1.8-8.3-1.4-11.1L51.8,37.3c-1-0.9-1.6-2.2-1.6-3.6v0c0-2.9,2.4-5.3,5.3-5.3s5.3,2.4,5.3,5.3c0,2.9-2.4,5.3-5.3,5.3" fill="#2563eb"/>
</svg>
